<?xml version="1.0" encoding="utf-8"?>
<!-- Generator: Adobe Illustrator 25.3.1, SVG Export Plug-In . SVG Version: 6.00 Build 0)  -->
<svg version="1.1" id="Layer_1" xmlns="http://www.w3.org/2000/svg" xmlns:xlink="http://www.w3.org/1999/xlink" x="0px" y="0px"
	 viewBox="0 0 626 1007" style="enable-background:new 0 0 626 1007;" xml:space="preserve">
<style type="text/css">
	.st0{fill:#D3AB48;}
</style>
<g>
	<path class="st0" d="M421.7,992.8c0.3,5.3,0.8,10.5,1.4,15.7c-63.8-28.1-121-69.3-167.7-121.1C304.4,931.8,360.6,967.4,421.7,992.8
		z"/>
	<path class="st0" d="M450.1,0.6h55c-27.7,6.6-54.9,15.3-81.2,26.1C362.1,52.1,305.1,88,255.4,132.8c45.6-50.4,101.1-90.9,163-119
		C428.8,9.1,439.4,4.7,450.1,0.6z"/>
	<path class="st0" d="M161.4,771.6c0,0,0,0,0.3,0c0.3,0.3,0.5,0.5,0.7,0.9c0.8,0.9,1.7,1.8,2.4,2.7s1.7,1.8,2.6,2.7l0,0
		c14.2,16.4,26.2,34.9,40.1,51.7c14.6,17.9,30.8,34.1,45.6,51.4c0.8,1-0.4,2.8-1.6,1.9c-18.3-13.5-33.4-31.7-48-49.1
		c-13.4-15.8-28.4-32.3-39.3-50.4c0-0.2,0-0.3,0-0.5l0,0l-0.3-0.4l0,0l-1.2-1.7l0,0c-0.3-0.5-0.6-1.1-0.8-1.6l0,0
		c-1-1.8-2-3.6-2.9-5.4c0-0.1,0-0.3,0-0.4C158.3,772,160.1,770.6,161.4,771.6z"/>
	<path class="st0" d="M132.1,317c0.7,0.1,1.1,0.6,1.1,1.3c0,0.1,0,0.2-0.1,0.3l-0.8,2.7c-1,3.5-2.1,7-3.2,10.5
		c-12.3,39.3-26.5,75-25.5,117c0,1.1,0,2.1,0,3.2s0,2.5,0,3.8s0,2,0,3.1c0,0.2,0,0.4,0,0.6l0,0c-0.5,1-1.6,1.4-2.6,1
		c-0.2-0.1-0.4-0.2-0.6-0.4c-0.2-0.2-0.3-0.5-0.4-0.7c-2.6-11.9-3.3-24-2.3-36.1v-0.4c0.2-3.3,0.5-6.5,1-9.8l0,0
		c3.8-26.6,14.2-52.8,24.2-77.7c0.4-1.2,0.9-2.3,1.4-3.5c0-0.1,0-0.3,0-0.4l0,0c0.1-0.3,0.3-0.7,0.4-1c0.2-0.6,0.4-1.2,0.7-1.8
		c0-0.2,0-0.3,0-0.5l0,0l0.3-0.7c1.2-3.2,2.5-6.2,3.8-9.5l0,0c-0.3-0.7,0.1-1.5,0.8-1.7C131,315.9,131.8,316.3,132.1,317L132.1,317z
		"/>
	<path class="st0" d="M235.1,145.5c-14.8,40.7-56.7,58.9-82.1,91.6c-21.3,26.5-31.5,60.3-28.4,94.1l-1.4,3.2v0.7
		c0.2,1,1.2,1.7,2.3,1.5c0.5-0.1,0.9-0.4,1.2-0.8c0.7-1.4,1.5-2.8,2.3-4.1c36.3-63.9,108.8-105.4,110.3-185.7
		c-0.1-1.2-1.2-2.1-2.4-1.9C236.1,144.2,235.4,144.7,235.1,145.5z M227.3,166.1c2.6-4.1,5.5-8.1,8.5-11.9c0.1-0.2,0.3-0.4,0.5-0.5
		c0,0,0-0.3,0.4-0.4c-0.2,0.2-0.3,0.5-0.5,0.7c-0.9,2.2-1.4,4.6-1.6,7l0,0l-0.3,2.1l0,0c-0.3,1.6-0.4,3.3-0.6,4.7l0,0
		c0,1.6-0.5,3.3-0.7,4.7c-2.2,10.9-5.9,21.5-10.9,31.4c-9.3,17.1-20.9,32.8-34.4,46.7c-18.9,20.9-41,41.7-55.6,66.5
		c-1.1,1.8-2.1,3.6-3.1,5.4l0,0c-0.8,1.5-1.6,3.1-2.3,4.7l-0.3,0.6l0,0l0,0l0,0c-0.2,0.6-0.5,1.2-0.8,1.7c0-1.6,0-3.1,0-4.7l0,0
		c1-39.4,18.1-76.6,47.3-103c12-11.3,25.3-21.2,37.3-32.5c6.6-6.9,12.4-14.5,17.1-22.8C227.3,166.3,227.4,166.2,227.3,166.1z"/>
	<path class="st0" d="M193.5,208.7c-32.8,33.7-62.2,70.9-67.1,118.8v0.6c-0.3,1.9-0.4,3.8-0.5,5.6l0,0v1.5l0,0
		c-0.1,0.2-0.3,0.3-0.5,0.3l0,0l0,0l0,0l0,0v-0.4v-3v-0.4l0,0l0,0c0-2,0.1-4,0.4-6l0,0c3.9-37.1,22.3-68.8,47.3-96.6
		C179.5,221.9,186.3,215.1,193.5,208.7z"/>
	<path class="st0" d="M237.2,145.8c0,0,0.4,0,0.4,0.3v1.5c0,2.7-0.2,5.4-0.7,8c-0.6,4.4-1.7,8.7-3.2,12.9l0,0
		c-7.3,20-23.6,37.5-36.7,52.9c-25.3,29.6-53.4,59.1-66.2,96.1c-0.6,1.5-1,3.1-1.5,4.7l0,0c-1.1,3.3-2,6.6-2.6,10
		c-0.3,0.9-0.4,1.7-0.6,2.5l0,0c-0.1,0.2-0.3,0.3-0.5,0.3l0,0l0,0c-0.1-0.1-0.1-0.3,0-0.4l0,0v-0.7c-0.1-0.2-0.1-0.5,0-0.7l0.2-1.6
		c0.3-1,0.5-2.1,0.7-3.2c0-0.1,0-0.3,0-0.4l0,0c0-0.1,0-0.2,0-0.3v-0.4c8.4-33.1,29-60.6,51.3-86.2c19.4-22.5,47.9-47.3,56.7-77.5
		l0,0c0.5-1.5,0.8-3,1.2-4.5l0,0c0.3-1.6,0.5-3,0.7-4.5c0,0,0,0,0-0.4c0.3-1.6,0.4-3.1,0.4-4.7c0.1-0.7,0.1-1.4,0-2l0,0v-0.8
		c-0.2-0.1-0.4-0.4-0.3-0.6C236.7,145.8,237,145.7,237.2,145.8L237.2,145.8z"/>
	<path class="st0" d="M92.3,502.7c0.2,0,0.3,0,0.5,0s0.3,0,0.5,0c0,0,0,0,0.3,0c0.2,0.1,0.3,0.3,0.4,0.4l0,0c0.3,0.3,0.4,0.6,0.5,1
		v12.4c-0.8,23.2-0.2,46.4,2,69.5v1c0,1.4,0.4,3,0.7,4.4l0,0c0,0.4,0,0.8,0,1.2l0.4,2.4v0.9l0,0l0.3,1.2v0.5
		c0.2,1.2,0.4,2.4,0.8,3.5l0,0c5.4,26.5,13.8,52.2,25,76.8l0,0l0,0v0.4c2.6,5.9,5.2,11.9,7.8,17.9c0.3,0.7,0.1,1.6-0.6,2
		c-0.7,0.3-1.5,0.1-1.8-0.6c-8.4-13.2-15.6-27.1-21.5-41.7v-0.3c-2-5-3.9-10.1-5.6-15.3l0,0l0,0l0,0l0,0
		c-15-44-20.3-93.5-11.7-136.1v-0.3c0.1-0.5,0.5-0.9,1-1C91.5,502.8,91.9,502.7,92.3,502.7z"/>
	<path class="st0" d="M200.8,353.3L200.8,353.3c0,0.9-0.4,1.6-0.6,2.5C190.5,393,151.6,432.6,131,465
		c-18.9,30.2-31.1,90.2-33.9,126.2l0,0l-0.3,4.7l0,0c0,0,0,0.4,0,0.6c0,2.1-0.3,4.2-0.3,6.1c0-0.8,0.5-1.6,0.7-2.4l0,0
		c0.2-0.8,0.5-1.6,0.8-2.4v-0.4l1.2-3.5l0,0c10.5-29.5,32.2-49.7,50-70.9c27.8-33,64.6-106.3,52.8-166.3v-0.2
		c-0.1-0.6-0.2-1.2-0.4-1.8l0,0l-0.5-2.6L200.8,353.3z M98.4,591.7c7.2-49.2,28.9-91.1,57.2-132.4c17.6-25.7,40-56.5,45.3-88.8
		C196.1,454.9,116.5,509,99,589.6l0,0C98.7,590.3,98.5,591,98.4,591.7z M128,475c10.9-20.8,27.1-38.7,40.9-57.6
		c11.7-16.9,21.9-34.8,30.5-53.5c-5.3,40.6-34.5,76.7-56.7,109.7c-22.5,32.9-37.6,70.2-44.3,109.5C102.4,546.2,111.2,506.9,128,475
		L128,475z M202,371.3c0.3,5.5,0.3,11.1,0,16.6c-0.8,14.5-3.4,28.9-7.6,42.8c-6.9,23.8-17.2,46.4-30.4,67.4
		c-18.9,30.5-47.7,53.5-62.5,85.7c21-77.7,97.4-132,100.1-215.9L202,371.3z"/>
	<path class="st0" d="M199,351.5c-13.4,51.1-59.4,83.6-79.5,131.1c-13.4,33.1-21.2,68.3-23,104v0.4c0,3.9-0.3,7.7-0.3,11.6
		c-0.5,1.2-0.8,2.5-1.2,3.8c-0.2,0.9,0.3,1.8,1.2,2.1c0.9,0.2,1.8-0.3,2.1-1.2c0.2-0.6,0.5-1.2,0.8-1.8l0,0
		c16-46.2,57.4-76.1,79.9-119.1c20.9-40.1,33.1-85.7,24.3-130.7c-0.3-1.1-1.4-1.8-2.6-1.6C199.8,350.3,199.2,350.8,199,351.5z
		 M194.3,430.8c-6.9,23.8-17.2,46.4-30.4,67.4c-18.9,30.5-47.7,53.5-62.5,85.7c-1,1.9-1.9,3.9-2.6,5.9l0,0c-0.3,0.5-0.5,1.1-0.6,1.7
		c-0.3,0.5-0.5,1-0.6,1.5c0.3-3.4,0.5-6.7,0.9-10.1c3.8-36.8,12.6-76.1,29.4-108.1c10.9-20.8,27.1-38.7,40.9-57.6
		c11.7-16.9,21.9-34.8,30.5-53.5l1.3-2.6l0.3-0.8l0,0c0.1-0.6,0.1-1.2,0-1.8c0,1.4,0,3.4,0.3,6.2v2.7c0.1,0.2,0.1,0.4,0,0.6l0.3,3.3
		c0.3,5.5,0.3,11.1,0,16.6c-0.6,14.5-2.9,28.9-6.9,42.9L194.3,430.8z"/>
	<path class="st0" d="M201.5,352v2.5l0,0c0,1.7,0,3.3,0,5c0,0,0,0.5,0,0.7c0.1,2.4,0.1,4.8,0,7.2c0.1,0.2,0.1,0.4,0,0.5
		c-2.7,83.9-79.1,138.2-100.1,215.9c-0.9,3.2-1.7,6.3-2.3,9.5l0,0l-0.7,3.7c0,0,0,0.3-0.4,0.3s0,0,0,0c-0.2,0-0.4-0.2-0.4-0.4
		c0-0.4,0-0.8,0-1.2l0,0c0.3-2,0.8-4,1.2-5.8l0,0c17.5-80.7,96.9-134.8,101.8-219.3l0,0c0.3-3.3,0.4-6.6,0.3-9.9l0,0
		c0-2.4,0-4.7-0.3-7v-1.3C200.7,351.6,201.4,351.6,201.5,352z"/>
	<path class="st0" d="M201.8,352c0,1.4,0,3,0,4.4v0.3c0.1,1,0.1,2,0,2.9c0,0,0,0.5,0,0.7c0,1.5,0,2.9,0,4.7
		c-0.2,1.9-0.4,3.8-0.8,5.6l0,0c-5.4,32.3-27.9,63.1-45.5,88.6c-28.4,41.1-50,82.9-57.2,132.4l-0.5,4.1l0,0c0,0.4,0,0.8,0,1.2
		c-0.2,0.9-0.3,1.9-0.4,2.8v0.8v1.8c0,0.3-0.3,0.5-0.6,0.5c-0.1,0-0.2,0-0.2-0.1s0-0.3,0-0.4c0-2,0.3-4.1,0.7-6.1c0,0,0-0.3,0-0.5
		l0,0l0,0l0.3-3.1c0.4-3.2,0.9-6.3,1.4-9.5c6.6-39.3,21.5-76.7,43.9-109.8c22-33.1,51.2-69,56.7-109.6c0.4-2.6,0.6-5.3,0.7-8
		c0-1.3,0-2.6,0-3.9c0.1-0.4,0.5-0.6,0.9-0.5C201.5,351.6,201.7,351.8,201.8,352z"/>
	<path class="st0" d="M60.5,245.5c-0.8,2.1-1.6,4.2-2.3,6.3c-1.1,3.1-2.2,6.2-3.1,9.5c0,0.1,0,0.3,0,0.4
		c-17.3,53.6-18.6,106.9,5.7,160.8C71.4,445.7,87,476,91.7,502.8c0.4,2.5,0.8,5,1.1,7.5v3.7c0.1,0.2,0.1,0.4,0,0.6
		c0,0.3,0,0.6,0,0.9v0.5c0,0.4,0,0.7,0,1.1l0.3-1.2l0,0l0.3-0.8l0,0l0.9-3.5l0,0c4.2-16.7,6.3-33.9,6.3-51.2
		c0-12.3-0.9-24.6-2.7-36.8v-0.3l-0.5-2.6c-10.2-65.7-31-94.6-36.5-132.8c-1.7-11.1-2-22.5-0.9-33.7c0.2-2.2,0.4-4.3,0.8-6.5l0,0
		c0-1.5,0.3-3.1,0.6-4.7L60.5,245.5z M55.3,402.2c-11.4-35.7-13.3-73.7-5.4-110.4c-1.9,29.8,1.9,59.7,11.2,88.1
		c12.7,40.9,29.6,80.1,31.6,122.9c-0.1-0.1-0.3-0.1-0.4,0C86.9,467.2,66.6,436,55.3,402.2z M77,348.8c8.3,23.4,14.4,47.6,18.3,72.2
		c3.2,23.7,3,47.8-0.4,71.4c0-32.6-7.7-64.5-15.7-96.2c-8.9-32.5-14.8-65.7-17.6-99.3C65.6,314.5,70.7,331.8,77,348.8z M94.3,497.5
		l-0.7,5.7c0,0,0,0-0.3,0C91.9,466,79.1,431.5,67.8,396c-15-45.9-18.9-88.4-10-134.3v-0.3v6C53.1,345.5,96.3,419.4,94.3,497.5z"/>
	<path class="st0" d="M59.3,241.8c-16.5,44.3-25,91-15,138c9.2,43.4,38.1,80.6,46.3,123.9c0.7,3.4,1.2,6.8,1.5,10.2
		c0,1-0.3,1.9-0.3,2.9s2,1.6,2.5,0.4v-0.3l0,0c6.7-18.4,9.9-37.8,9.5-57.4l0,0c0-1.2,0-2.4,0-3.7s0-2.5,0-3.8s0-2,0-3.1
		c-0.8-12-2.3-23.9-4.7-35.7l0,0c-2.9-15.5-6.6-30.8-11.3-45.8c-13-42.3-30.2-78.4-23.6-123.9c0.5-1.3-0.2-2.7-1.5-3.2
		C61.2,239.8,59.8,240.5,59.3,241.8z M77,348.6c8.3,23.4,14.4,47.6,18.3,72.2c3.2,23.8,3,47.9-0.4,71.6l0,0l-0.6,4.7l-0.7,5.7
		c0,0.6,0,1.1,0,1.7l0,0l-0.4,2.6v-1.2c-0.1-1.3-0.3-2.5-0.5-3.8c-5.2-35.5-25.6-66.7-36.9-100.5c-11.4-35.7-13.3-73.7-5.4-110.4
		c0-0.1,0-0.2,0-0.2c2.1-10.2,4.6-20.2,7.7-30.1v-0.3v6c0.3,9.9,1.5,19.7,3.6,29.4c3.9,17.9,9.1,35.6,15.4,52.8L77,348.6L77,348.6z"
		/>
	<path class="st0" d="M61.7,241.8c0.1,0,0.3,0,0.4,0c0.1,0.1,0.1,0.3,0,0.4l0,0l-1.1,4.7l0,0c-0.7,2.8-1.5,5.6-2,8.3l0,0l-0.3,1.4
		l-0.9,4.1v0.3c-9.1,45.9-5,88.4,10,134.3c11.5,35.5,24.2,70,25.5,107.2c0,0.6,0,1.3,0,1.9l0,0c0,2.1,0,4.4,0,6.6v1c0,1,0,2.1,0,3.1
		v1.3l0,0H93c0-0.8,0-1.6,0-2.4c0.1-0.2,0.1-0.4,0-0.5c0-2.6,0-5.1,0-7.7v-3.7c-2-42.6-18.9-81.9-31.6-122.9
		c-9.3-28.4-13.1-58.3-11.2-88.1c0-0.1,0-0.2,0-0.3c0.8-10.1,2.5-20.2,5-30c0-0.1,0-0.2,0-0.3c1.6-6.4,3.6-12.7,6-18.9
		c0,0,0-0.3,0.2-0.4S61.5,241.8,61.7,241.8z"/>
	<path class="st0" d="M61.7,241.8c0.1,0,0.3,0,0.4,0c0.1,0.1,0.1,0.3,0,0.4l0,0l0,0c-0.2,2.4-0.4,4.7-0.5,7
		c-1,12.6-1.2,25.2-0.6,37.8c0,2.9,0.2,6,0.4,9c2.9,33.6,8.8,66.8,17.6,99.3c8,31.7,15.7,63.6,15.7,96.2v0.5c0,4.3,0,8.6-0.4,12.9
		c0,3.2-0.5,6.2-0.9,9.5l0,0l-0.3,2l0,0l0,0h-0.3c0-0.4,0-0.7,0-1.1l0.5-3.3v-1c0.3-2.7,0.5-5.3,0.6-8l0,0c0-2,0.3-4,0.3-6.1
		c2-78.1-41.1-152-36.3-230.4c0-2.9,0.4-5.6,0.7-8.5v-1.5l0.3-1.4l0,0c0.4-3.4,0.8-6.7,1.5-10.1c0-1.1,0.4-2,0.6-3.1
		c0,0,0-0.3,0.2-0.4C61.4,241.4,61.5,241.8,61.7,241.8z"/>
	<path class="st0" d="M33.8,501.4c0,1,0,1.9,0,3l0,0c0,1.9,0,3.7,0,5.6l0,0c-0.3,52.6,8.7,104.8,26.6,154.2
		c17,47.8,54.9,95.4,101.1,117.3c0.6,0.4,1.2,0.7,1.8,0.9l0,0c0.6,0.4,1.3,0.7,2,0.9l0,0c0.5,0.3,1.1,0.6,1.7,0.8l-0.3-0.9v-0.5
		c-0.4-1.2-0.6-2.4-1.1-3.6l0,0c-0.3-1.3-0.6-2.6-1.1-3.8c-8.6-26.6-19.6-52.3-33.1-76.7c-7.2-13.9-15.3-28.1-23.3-42.2l0,0
		c-28.3-50.4-58.4-100.9-71.6-146l-0.3-0.7v-0.3l-0.9-2.9c-0.4-1.7-0.9-3.3-1.2-4.7v-0.4H33.8z M158.7,773.5c0,0.2,0,0.3,0,0.5
		c0.9,1.8,1.9,3.6,2.9,5.4c-34.8-24.5-58.6-66.2-76.8-103.6C61.7,629,46,579.1,38,527.6C57.9,617,107.4,698.5,158.7,773.5z
		 M36.7,535.9c7.9,49.2,23.4,96.8,46,141.1c17.6,35.1,40.1,74.7,72.2,99.6C72.4,728,40.9,628.9,36.7,535.9L36.7,535.9z M94.4,637.3
		c24.4,42.9,48.1,85.5,65.8,131.5c-17.9-31.2-40.1-60.3-57.7-91.6c-25.9-45.8-48.5-94-61.5-145C55,568.9,75.1,603.4,94.4,637.3z"/>
	<path class="st0" d="M31.2,501c-2.7,103,28,237.9,132.9,282.5c0.5,0.3,0.9,0.5,1.5,0.6c0.1,0.1,0.3,0.1,0.4,0l0,0l0,0
		c0.3,0.7,1.1,0.9,1.8,0.6c0.5-0.2,0.8-0.8,0.7-1.3c-0.3-1.9-0.8-3.8-1.2-5.7l0,0c-7.8-34.9-25.1-67.9-43.1-99.3v-0.3l0,0l0,0
		l-18.3-31.3c-1.2-2-2.3-4.1-3.4-6l0,0l0,0l0,0l0,0c-25.7-44.5-52.8-89.8-65.9-140c0-1.5-1.3-2.6-2.7-2.6
		C32.3,498.3,31.1,499.5,31.2,501z M41.2,532.2c13.8,36.6,34,70.9,53.2,105c24.4,42.9,48.1,85.5,65.8,131.5l0,0l1.1,2.7
		c1.3,3.3,2.5,6.6,3.6,9.9l0.3,0.9c-0.2-0.1-0.4-0.2-0.6-0.3l0,0c-0.7-0.4-1.3-0.7-1.9-1.1l0,0c-2.6-1.3-5.1-2.8-7.7-4.3
		C72.5,727.9,41,628.7,36.8,535.7c0-5.7-0.4-11.4-0.5-17.1c0.4,0.7,0.7,1.5,0.9,2.3c1.3,3.6,2.5,7.3,4,10.9
		C41.1,532,41.1,532.1,41.2,532.2L41.2,532.2z"/>
	<path class="st0" d="M34.3,500.5c0.2,0.1,0.3,0.3,0.3,0.5v0.3c0.1,0.4,0.1,0.9,0,1.3c0.1,0.1,0.1,0.3,0,0.4c0,1.1,0.3,2.3,0.4,3.3
		l1,8.7l0.9,6.3c0.3,2.2,0.7,4.3,1,6.5c8,51.4,23.7,101.4,46.7,148.1c18.3,37.3,42,79.1,76.8,103.6l0,0c0.5,0.4,1.1,0.8,1.7,1.2l0,0
		c0.4,0.4,0.9,0.7,1.4,1c0.6,0.5,1.3,0.9,2,1.2c0.3,0.3,0.6,0.5,0.9,0.7c1,0.6,0,2.3-1,1.6c-0.1-0.1-0.3-0.2-0.4-0.3l0,0
		c-0.1,0-0.2,0-0.3,0c-0.2-0.1-0.4-0.2-0.5-0.3c-0.6-0.3-1.2-0.7-1.7-1.2l0,0c-0.8-0.3-1.5-0.8-2.2-1.3c-2.2-1.6-4.5-3.2-6.7-4.7
		c-32.2-24.9-54.6-64.4-72.2-99.5c-22.6-44.4-38.1-92-46-141.1c-1.3-8.6-2.4-17.2-3.1-25.8l0,0c-0.2-2.9-0.5-5.7-0.7-8.6v-0.5
		c-0.3-0.4-0.2-1,0.2-1.3C33.3,499.9,33.9,500,34.3,500.5z"/>
	<path class="st0" d="M34.3,500.5v0.4l0.3,1.7c0.1,0.1,0.1,0.3,0,0.4c0.4,2.1,0.7,4.2,1.2,6.2c0,0.1,0,0.2,0,0.3
		c1.4,7.6,3.1,15.2,5,22.6l0,0c12.9,50.9,35.5,99.3,61.5,144.8c17.8,31.4,40.1,60.6,58,91.8l0,0c0.8,1.2,1.5,2.4,2.1,3.7
		c1.3,2.1,2.4,4.3,3.5,6.4l0,0c0.9,1.5,1.6,3,2.5,4.5c0.3,0.5,0.1,1.2-0.4,1.5s-1.2,0.1-1.5-0.4l0,0c-0.3-0.4-0.6-0.8-0.9-1.2
		c-0.3-0.5-0.6-0.8-0.8-1.3l0,0l-1-1.5l0,0c-1.5-2.4-3.2-4.7-4.7-7c-51.5-74.9-101-156.5-120.7-245.8l-1.9-8.8l0,0
		c-0.9-4.7-1.8-9.5-2.5-14.2l0,0l-0.5-3.3C33,500.6,33.8,500.2,34.3,500.5z"/>
</g>
</svg>
